<?xml version="1.0" encoding="UTF-8"?>
<!DOCTYPE svg PUBLIC "-//W3C//DTD SVG 1.1//EN" "http://www.w3.org/Graphics/SVG/1.1/DTD/svg11.dtd">
<svg version="1.1" xmlns="http://www.w3.org/2000/svg" xmlns:xlink="http://www.w3.org/1999/xlink" x="0" y="0" width="88" height="33" viewBox="0, 0, 88, 33">
  <g id="insight_text">
    <text transform="matrix(1, -0, 0, 1, 43.541, 17.235)">
      <tspan x="-43.227" y="9.496" font-family="HelveticaNeue-Bold" font-size="27" fill="#FFFFFF">i</tspan>
      <tspan x="-36.261" y="9.496" font-family="HelveticaNeue-Bold" font-size="27" fill="#533089">nsight</tspan>
      <tspan x="43.227" y="9.496" font-family="HelveticaNeue-Bold" font-size="27" fill="#401378"> </tspan>
    </text>
    <text transform="matrix(1, 0, 0, 1, 22.98, 30.927)">
      <tspan x="-21.174" y="1.179" font-family="HelveticaNeue-Bold" font-size="6" fill="#ADADAD">Lab @ Western</tspan>
    </text>
  </g>
  <g id="eye" display="none">
    <g>
      <path d="M31.555,4.038 C31.555,4.038 28.294,0.078 23.627,3.484 C23.627,3.484 23.414,3.648 23.552,3.856 C23.727,4.12 24.149,3.684 24.149,3.684 C24.149,3.684 27.388,0.414 31.555,4.038 z" fill="#533089"/>
      <path d="M31.299,4.029 C31.299,4.029 27.719,0.659 24.341,3.902 C24.341,3.902 23.84,4.429 24.17,4.656 C24.501,4.883 24.671,4.592 24.756,4.547 C24.842,4.501 24.895,4.574 24.959,4.665 C25.023,4.756 28.081,6.636 31.257,4.256 C31.257,4.256 27.815,6.618 25.044,4.41 C25.044,4.41 24.735,4.12 25.055,3.784 C25.374,3.448 27.293,1.341 31.299,4.029 z" fill="#533089"/>
      <path d="M25.465,3.334 C25.31,3.642 25.295,4 25.457,4.333 C25.775,4.992 26.66,5.306 27.432,5.034 C28.205,4.763 28.573,4.009 28.255,3.35 C28.1,3.03 27.81,2.791 27.465,2.661 C27.465,2.661 27.01,2.658 26.389,2.876 C25.768,3.094 25.465,3.334 25.465,3.334 z M27.499,3.558 L28.027,3.322 C28.045,3.352 28.062,3.381 28.078,3.413 C28.157,3.577 28.186,3.747 28.173,3.913 L27.578,3.882 C27.585,3.791 27.57,3.697 27.526,3.607 C27.518,3.59 27.509,3.574 27.499,3.558 z M26.659,3.41 C26.942,3.311 27.265,3.426 27.382,3.667 C27.499,3.908 27.364,4.184 27.081,4.283 C26.798,4.383 26.474,4.268 26.357,4.027 C26.241,3.785 26.376,3.509 26.659,3.41 z" fill="#533089"/>
    </g>
  </g>
  <g id="arrows" display="none">
    <g>
      <path d="M21.415,1.094 C26.558,-0.395 31.451,-0.251 34.313,1.62" fill-opacity="0" stroke="#533089" stroke-width="0.15"/>
      <path d="M21.279,0.664 L20.27,1.454 L21.55,1.523 z" fill="#533089" fill-opacity="1" stroke="#533089" stroke-width="0.15" stroke-opacity="1"/>
    </g>
    <g>
      <path d="M33.019,6.345 C27.875,7.833 22.982,7.689 20.12,5.818" fill-opacity="0" stroke="#533089" stroke-width="0.15"/>
      <path d="M33.154,6.774 L34.164,5.984 L32.884,5.915 z" fill="#533089" fill-opacity="1" stroke="#533089" stroke-width="0.15" stroke-opacity="1"/>
    </g>
  </g>
  <g id="i_binary">
    <text transform="matrix(1, 0, 0, 1, 3.91, 19.876)">
      <tspan x="-1.946" y="-6.5" font-family="HelveticaNeue-Medium" font-size="1" fill="#533089">0101010</tspan>
      <tspan x="-1.946" y="-5.5" font-family="HelveticaNeue-Medium" font-size="1" fill="#411E76">0101010</tspan>
      <tspan x="-1.946" y="-4.5" font-family="HelveticaNeue-Medium" font-size="1" fill="#411E76">0101010</tspan>
      <tspan x="-1.946" y="-3.5" font-family="HelveticaNeue-Medium" font-size="1" fill="#411E76">0101010</tspan>
      <tspan x="-1.946" y="-2.5" font-family="HelveticaNeue-Medium" font-size="1" fill="#411E76">0101010</tspan>
      <tspan x="-1.946" y="-1.5" font-family="HelveticaNeue-Medium" font-size="1" fill="#411E76">0101010</tspan>
      <tspan x="-1.946" y="-0.5" font-family="HelveticaNeue-Medium" font-size="1" fill="#411E76">0101010</tspan>
      <tspan x="-1.946" y="0.5" font-family="HelveticaNeue-Medium" font-size="1" fill="#411E76">0101010</tspan>
      <tspan x="-1.946" y="1.5" font-family="HelveticaNeue-Medium" font-size="1" fill="#411E76">0101010</tspan>
      <tspan x="-1.946" y="2.5" font-family="HelveticaNeue-Medium" font-size="1" fill="#411E76">0101010</tspan>
      <tspan x="-1.946" y="3.5" font-family="HelveticaNeue-Medium" font-size="1" fill="#411E76">0101010</tspan>
      <tspan x="-1.946" y="4.5" font-family="HelveticaNeue-Medium" font-size="1" fill="#411E76">0101010</tspan>
      <tspan x="-1.946" y="5.5" font-family="HelveticaNeue-Medium" font-size="1" fill="#411E76">0101010</tspan>
      <tspan x="-1.946" y="6.5" font-family="HelveticaNeue-Medium" font-size="1" fill="#411E76">0101010</tspan>
    </text>
  </g>
  <g id="visualization">
    <g>
      <path d="M10.802,5.707 L10.803,5.707 L10.803,4.798 C10.952,4.786 11.09,4.725 11.2,4.625 L11.892,5.318 L11.93,5.28 L11.238,4.588 C11.348,4.473 11.412,4.325 11.422,4.167 L12.334,4.167 C12.359,4.337 12.505,4.468 12.682,4.468 C12.876,4.468 13.033,4.311 13.033,4.116 C13.033,3.922 12.876,3.765 12.682,3.765 C12.505,3.765 12.359,3.896 12.334,4.066 L11.421,4.066 C11.409,3.915 11.347,3.775 11.243,3.663 L11.247,3.667 L11.948,2.966 L11.91,2.929 L11.21,3.629 C11.098,3.524 10.956,3.461 10.803,3.448 L10.803,2.526 L10.802,2.526 C10.973,2.502 11.105,2.356 11.105,2.178 C11.105,1.984 10.947,1.827 10.753,1.827 C10.559,1.827 10.402,1.984 10.402,2.178 C10.402,2.356 10.533,2.502 10.704,2.526 L10.703,2.526 L10.703,3.448 C10.538,3.458 10.385,3.526 10.267,3.644 C10.153,3.758 10.085,3.906 10.072,4.066 L9.157,4.066 L9.157,4.116 L9.157,4.167 L10.071,4.167 C10.081,4.324 10.144,4.471 10.252,4.586 L9.561,5.278 C9.511,5.235 9.449,5.211 9.383,5.211 C9.309,5.211 9.24,5.239 9.187,5.292 C9.08,5.399 9.08,5.574 9.187,5.682 C9.24,5.734 9.309,5.763 9.383,5.763 C9.456,5.763 9.526,5.734 9.578,5.682 C9.63,5.63 9.659,5.56 9.659,5.487 C9.659,5.424 9.637,5.365 9.598,5.316 L10.29,4.623 C10.405,4.728 10.549,4.789 10.703,4.798 L10.703,5.707 L10.704,5.707 C10.533,5.731 10.402,5.877 10.402,6.054 C10.402,6.249 10.559,6.406 10.753,6.406 C10.947,6.406 11.105,6.249 11.105,6.054 C11.105,5.877 10.973,5.731 10.802,5.707 z M11.37,4.066 C11.361,3.97 11.331,3.874 11.278,3.789 C11.33,3.873 11.361,3.967 11.37,4.066 z M9.609,5.487 C9.609,5.547 9.585,5.604 9.543,5.647 C9.5,5.689 9.443,5.713 9.383,5.713 C9.322,5.713 9.266,5.689 9.223,5.647 C9.135,5.558 9.135,5.415 9.223,5.327 C9.266,5.284 9.322,5.261 9.383,5.261 C9.443,5.261 9.5,5.284 9.543,5.327 C9.585,5.37 9.609,5.426 9.609,5.487 z M10.48,4.389 C10.409,4.318 10.37,4.224 10.37,4.123 C10.37,4.022 10.409,3.928 10.48,3.857 C10.551,3.786 10.646,3.747 10.746,3.747 C10.847,3.747 10.942,3.786 11.013,3.857 C11.16,4.004 11.16,4.242 11.013,4.389 C10.942,4.46 10.847,4.499 10.746,4.499 C10.646,4.499 10.551,4.46 10.48,4.389 z M10.726,4.549 C10.834,4.554 10.939,4.519 11.021,4.45 C10.939,4.519 10.834,4.554 10.726,4.549 z" fill="#533089"/>
      <path d="M9.157,4.116 C9.157,4.311 9,4.468 8.806,4.468 C8.611,4.468 8.454,4.311 8.454,4.116 C8.454,3.922 8.611,3.765 8.806,3.765 C9,3.765 9.157,3.922 9.157,4.116 z" fill="#533089"/>
      <path d="M12.124,3.022 C12.197,3.022 12.267,2.993 12.319,2.941 C12.427,2.834 12.427,2.658 12.319,2.551 C12.267,2.498 12.197,2.47 12.124,2.47 C12.05,2.47 11.98,2.498 11.928,2.551 C11.876,2.603 11.847,2.672 11.847,2.746 C11.847,2.82 11.876,2.889 11.928,2.941 C11.98,2.993 12.05,3.022 12.124,3.022 z M11.964,2.586 C12.006,2.543 12.063,2.52 12.123,2.52 C12.184,2.52 12.241,2.543 12.283,2.586 C12.371,2.674 12.371,2.818 12.283,2.906 C12.241,2.948 12.184,2.972 12.124,2.972 C12.063,2.972 12.006,2.948 11.964,2.906 C11.921,2.863 11.898,2.806 11.898,2.746 C11.898,2.686 11.921,2.629 11.964,2.586 z" fill="#533089"/>
      <path d="M11.847,5.487 C11.847,5.561 11.876,5.63 11.928,5.682 C11.98,5.734 12.05,5.763 12.124,5.763 C12.197,5.763 12.267,5.734 12.319,5.682 C12.426,5.574 12.427,5.399 12.319,5.292 C12.267,5.239 12.197,5.211 12.124,5.211 C12.05,5.211 11.98,5.239 11.928,5.292 C11.876,5.344 11.847,5.413 11.847,5.487 z M12.124,5.261 C12.184,5.261 12.241,5.284 12.283,5.327 C12.371,5.415 12.371,5.558 12.283,5.647 C12.241,5.689 12.184,5.713 12.124,5.713 C12.063,5.713 12.007,5.689 11.964,5.647 C11.921,5.604 11.898,5.547 11.898,5.487 C11.898,5.426 11.921,5.37 11.964,5.327 C12.007,5.284 12.063,5.261 12.124,5.261 z" fill="#533089"/>
      <path d="M9.187,2.551 C9.135,2.603 9.107,2.672 9.107,2.746 C9.107,2.82 9.135,2.889 9.187,2.941 C9.24,2.993 9.309,3.022 9.383,3.022 C9.442,3.022 9.497,3.003 9.544,2.969 L10.242,3.667 L10.279,3.629 L9.584,2.934 C9.632,2.883 9.659,2.816 9.659,2.746 C9.659,2.672 9.63,2.603 9.578,2.551 C9.526,2.498 9.456,2.47 9.383,2.47 C9.309,2.47 9.24,2.498 9.187,2.551 z M9.609,2.746 C9.609,2.806 9.585,2.863 9.543,2.906 C9.5,2.948 9.443,2.972 9.383,2.972 C9.322,2.972 9.266,2.948 9.223,2.906 C9.18,2.863 9.157,2.806 9.157,2.746 C9.157,2.686 9.18,2.629 9.223,2.586 C9.266,2.544 9.322,2.52 9.383,2.52 C9.443,2.52 9.5,2.544 9.543,2.586 C9.585,2.629 9.609,2.686 9.609,2.746 z" fill="#533089"/>
      <path d="M12.365,4.668 C12.307,4.584 12.212,4.522 12.153,4.528 L11.532,4.597 C11.478,4.602 11.474,4.665 11.518,4.739 L11.651,4.872 C11.684,4.891 11.717,4.902 11.743,4.899 L12.364,4.831 C12.423,4.824 12.423,4.751 12.365,4.668 z" fill="#533089"/>
      <path d="M13.024,5.838 C12.99,5.758 12.901,5.674 12.826,5.652 L12.462,5.543 C12.449,5.624 12.412,5.702 12.35,5.764 L12.951,5.944 C13.026,5.966 13.059,5.919 13.024,5.838 z" fill="#533089"/>
      <path d="M13.156,6.688 L12.286,6.174 C12.204,6.125 12.143,6.141 12.149,6.209 C12.154,6.255 12.188,6.312 12.234,6.36 C12.257,6.383 12.283,6.404 12.311,6.42 L13.18,6.935 C13.263,6.984 13.324,6.968 13.317,6.9 C13.311,6.832 13.239,6.737 13.156,6.688 z" fill="#533089"/>
      <path d="M13.104,7.513 L12.263,6.783 C12.183,6.714 12.101,6.696 12.079,6.744 C12.059,6.786 12.094,6.866 12.159,6.931 C12.167,6.939 12.175,6.947 12.183,6.955 L13.025,7.684 C13.105,7.753 13.187,7.771 13.209,7.723 C13.231,7.676 13.184,7.582 13.104,7.513 z" fill="#533089"/>
      <path d="M11.965,7.169 C11.897,7.087 11.804,7.039 11.756,7.06 C11.708,7.081 11.724,7.163 11.791,7.244 L12.503,8.101 C12.51,8.11 12.518,8.118 12.526,8.126 C12.59,8.192 12.669,8.229 12.712,8.21 C12.759,8.189 12.744,8.107 12.676,8.026 L11.965,7.169 z" fill="#533089"/>
      <path d="M11.428,7.285 C11.381,7.201 11.288,7.127 11.22,7.119 C11.152,7.111 11.135,7.172 11.182,7.255 L11.678,8.136 C11.693,8.163 11.714,8.19 11.736,8.213 C11.783,8.261 11.84,8.296 11.886,8.301 C11.954,8.309 11.971,8.248 11.924,8.165 L11.428,7.285 z" fill="#533089"/>
      <path d="M10.718,7.116 C10.697,7.041 10.615,6.95 10.535,6.914 C10.455,6.878 10.407,6.91 10.428,6.985 L10.648,7.784 C10.66,7.826 10.69,7.872 10.729,7.912 C10.76,7.943 10.795,7.97 10.831,7.986 C10.911,8.022 10.959,7.99 10.938,7.914 L10.718,7.116 z" fill="#533089"/>
      <path d="M9.784,6.47 C9.702,6.41 9.629,6.409 9.621,6.468 L9.539,7.087 C9.533,7.133 9.569,7.202 9.624,7.258 C9.639,7.274 9.656,7.289 9.674,7.302 C9.756,7.362 9.829,7.362 9.837,7.304 L9.919,6.684 C9.927,6.626 9.866,6.53 9.784,6.47 z" fill="#533089"/>
      <path d="M8.858,5.765 L8.484,6.131 C8.449,6.165 8.481,6.255 8.555,6.332 C8.63,6.408 8.719,6.442 8.755,6.407 L9.129,6.041 C9.164,6.006 9.132,5.916 9.058,5.84 C8.983,5.764 8.894,5.73 8.858,5.765 z" fill="#533089"/>
      <path d="M8.443,5.1 C8.385,5.017 8.291,4.954 8.232,4.961 L7.611,5.029 C7.552,5.036 7.551,5.109 7.609,5.192 C7.622,5.211 7.636,5.228 7.651,5.243 C7.707,5.3 7.775,5.337 7.821,5.332 L8.442,5.263 C8.501,5.257 8.501,5.184 8.443,5.1 z" fill="#533089"/>
      <path d="M8.015,4.34 C7.981,4.259 7.892,4.176 7.817,4.153 L7.023,3.916 C6.948,3.894 6.915,3.941 6.95,4.022 C6.965,4.057 6.991,4.094 7.022,4.125 C7.06,4.164 7.106,4.196 7.148,4.208 L7.941,4.446 C8.016,4.468 8.049,4.421 8.015,4.34 z" fill="#533089"/>
      <path d="M7.825,3.651 C7.818,3.583 7.746,3.488 7.664,3.439 L6.794,2.925 C6.711,2.876 6.65,2.892 6.657,2.96 C6.661,3.006 6.695,3.064 6.742,3.111 C6.765,3.135 6.791,3.156 6.818,3.172 L7.688,3.686 C7.77,3.735 7.832,3.719 7.825,3.651 z" fill="#533089"/>
      <path d="M6.87,2.347 L7.711,3.077 C7.791,3.146 7.874,3.164 7.895,3.116 C7.917,3.069 7.87,2.974 7.791,2.905 L6.949,2.176 C6.87,2.107 6.787,2.089 6.765,2.136 C6.746,2.179 6.781,2.258 6.845,2.324 C6.853,2.332 6.861,2.34 6.87,2.347 z" fill="#533089"/>
      <path d="M8.01,2.691 C8.017,2.7 8.024,2.708 8.032,2.716 C8.097,2.782 8.176,2.819 8.218,2.8 C8.266,2.779 8.25,2.697 8.183,2.616 L7.471,1.759 C7.404,1.678 7.31,1.629 7.263,1.65 C7.215,1.671 7.231,1.753 7.298,1.834 L8.01,2.691 z" fill="#533089"/>
      <path d="M8.546,2.575 C8.562,2.603 8.582,2.629 8.605,2.653 C8.652,2.7 8.709,2.736 8.754,2.741 C8.822,2.749 8.839,2.688 8.792,2.605 L8.297,1.724 C8.25,1.641 8.156,1.567 8.088,1.558 C8.02,1.55 8.003,1.611 8.05,1.695 L8.546,2.575 z" fill="#533089"/>
      <path d="M9.154,2.37 C9.206,2.346 9.263,2.333 9.322,2.333 C9.348,2.333 9.374,2.336 9.399,2.341 L9.326,2.076 C9.305,2.001 9.223,1.91 9.143,1.874 C9.063,1.838 9.016,1.87 9.036,1.945 L9.154,2.37 z" fill="#533089"/>
      <path d="M10.19,3.39 C10.217,3.409 10.242,3.422 10.265,3.429 C10.294,3.411 10.324,3.395 10.355,3.381 L10.435,2.773 C10.443,2.714 10.382,2.618 10.3,2.558 C10.218,2.498 10.145,2.497 10.137,2.556 L10.055,3.175 C10.049,3.221 10.085,3.29 10.14,3.347 C10.155,3.362 10.172,3.377 10.19,3.39 z" fill="#533089"/>
    </g>
  </g>
  <g id="computer">
    <g>
      <path d="M6.095,2.095 L3.33,2.095 C2.82,2.095 2.408,2.508 2.408,3.016 L2.408,13.154 C2.408,13.664 2.82,14.076 3.33,14.076 L6.095,14.076 C6.604,14.076 7.016,13.664 7.016,13.154 L7.016,3.016 C7.016,2.508 6.604,2.095 6.095,2.095 z M3.791,11.311 C3.536,11.311 3.33,11.105 3.33,10.85 C3.33,10.595 3.536,10.389 3.791,10.389 C4.045,10.389 4.251,10.595 4.251,10.85 C4.251,11.105 4.045,11.311 3.791,11.311 z M6.095,5.781 L3.33,5.781 L3.33,4.86 L6.095,4.86 L6.095,5.781 z M6.095,3.938 L3.33,3.938 L3.33,3.016 L6.095,3.016 L6.095,3.938 z" fill="#533089" display="none"/>
      <path d="M12.085,11.342 L12.085,10.42 L9.32,10.42 L9.32,11.342 C8.811,11.342 8.399,11.754 8.399,12.264 L13.007,12.264 C13.007,11.754 12.595,11.342 12.085,11.342 z" fill="#533089"/>
      <path d="M16.232,0.252 L5.173,0.252 C4.664,0.252 4.251,0.665 4.251,1.173 L5.173,1.173 L7.938,1.173 L16.232,1.173 L16.232,8.546 L7.938,8.546 L7.938,10.389 L16.232,10.389 C16.742,10.389 17.154,9.977 17.154,9.468 L17.154,1.173 C17.154,0.665 16.742,0.252 16.232,0.252 z M10.703,9.929 C10.448,9.929 10.242,9.722 10.242,9.468 C10.242,9.213 10.448,9.007 10.703,9.007 C10.957,9.007 11.164,9.213 11.164,9.468 C11.164,9.722 10.957,9.929 10.703,9.929 z" fill="#533089"/>
    </g>
  </g>
  <g id="data_gears">
    <g>
      <path d="M2.84,6.608 C2.84,6.608 2.83,6.504 2.826,6.452 C2.85,6.438 2.874,6.423 2.896,6.406 C2.934,6.428 3.012,6.473 3.012,6.473 L3.144,6.439 L3.295,6.179 L3.26,6.047 C3.26,6.047 3.16,5.989 3.11,5.96 C3.108,5.931 3.105,5.903 3.1,5.875 C3.139,5.841 3.218,5.773 3.218,5.773 L3.218,5.636 L3.023,5.409 L2.886,5.409 C2.886,5.409 2.821,5.464 2.789,5.492 C2.754,5.475 2.716,5.461 2.678,5.451 C2.675,5.412 2.668,5.335 2.668,5.335 L2.572,5.238 L2.273,5.262 L2.176,5.359 C2.176,5.359 2.184,5.461 2.188,5.511 C2.159,5.528 2.131,5.547 2.106,5.568 C2.064,5.548 1.979,5.51 1.979,5.51 L1.847,5.545 L1.722,5.817 L1.717,5.836 L1.757,5.95 C1.757,5.95 1.854,5.994 1.903,6.017 C1.905,6.049 1.91,6.08 1.918,6.111 C1.881,6.142 1.807,6.206 1.807,6.206 L1.807,6.342 L2,6.571 C2,6.571 2.113,6.585 2.119,6.581 C2.125,6.578 2.137,6.571 2.137,6.571 C2.137,6.571 2.208,6.511 2.244,6.481 C2.273,6.494 2.305,6.506 2.337,6.514 C2.341,6.555 2.348,6.635 2.348,6.635 L2.445,6.732 L2.743,6.705 L2.84,6.608 z M2.49,6.287 C2.323,6.287 2.188,6.152 2.188,5.985 C2.188,5.818 2.323,5.683 2.49,5.683 C2.657,5.683 2.792,5.818 2.792,5.985 C2.792,6.151 2.657,6.287 2.49,6.287 z" fill="#533089"/>
      <path d="M3.669,7.589 C3.669,7.589 3.662,7.51 3.658,7.471 C3.677,7.461 3.695,7.449 3.711,7.436 C3.741,7.453 3.799,7.487 3.799,7.487 L3.899,7.461 L4.013,7.265 L3.987,7.165 C3.987,7.165 3.911,7.121 3.873,7.099 C3.872,7.077 3.87,7.056 3.866,7.035 C3.896,7.009 3.955,6.958 3.955,6.958 L3.955,6.855 L3.808,6.682 L3.704,6.682 C3.704,6.682 3.655,6.724 3.631,6.745 C3.604,6.732 3.576,6.722 3.547,6.714 C3.544,6.685 3.54,6.626 3.54,6.626 L3.466,6.553 L3.241,6.572 L3.167,6.645 C3.167,6.645 3.174,6.722 3.177,6.76 C3.155,6.772 3.134,6.787 3.114,6.802 C3.083,6.788 3.019,6.759 3.019,6.759 L2.919,6.785 L2.824,6.991 L2.821,7.005 L2.85,7.091 C2.85,7.091 2.924,7.125 2.961,7.142 C2.963,7.166 2.967,7.19 2.973,7.213 C2.944,7.237 2.888,7.285 2.888,7.285 L2.888,7.388 L3.035,7.561 C3.035,7.561 3.12,7.571 3.125,7.569 C3.129,7.566 3.138,7.561 3.138,7.561 C3.138,7.561 3.192,7.516 3.219,7.493 C3.241,7.503 3.265,7.512 3.289,7.518 C3.292,7.549 3.298,7.609 3.298,7.609 L3.371,7.683 L3.596,7.662 L3.669,7.589 z M3.405,7.346 C3.279,7.346 3.177,7.244 3.177,7.118 C3.177,6.992 3.279,6.89 3.405,6.89 C3.531,6.89 3.633,6.992 3.633,7.118 C3.633,7.244 3.531,7.346 3.405,7.346 z" fill="#533089"/>
      <path d="M5.748,4.744 C4.791,4.744 3.833,4.744 2.876,4.744 C2.635,4.744 2.635,5.117 2.876,5.117 C3.833,5.117 4.791,5.117 5.748,5.117 C5.989,5.117 5.989,4.744 5.748,4.744 z" fill="#533089" display="none"/>
      <path d="M5.748,5.627 C4.791,5.627 5.325,5.627 4.368,5.627 C4.127,5.627 4.127,6 4.368,6 C5.325,6 4.791,6 5.748,6 C5.989,6 5.989,5.627 5.748,5.627 z" fill="#533089" display="none"/>
      <path d="M1.95,4.278 L6.285,4.278 L6.285,6.646 L6.733,6.646 L6.733,3.83 L1.502,3.83 L1.502,5.29 L1.95,5.29 z" fill="#533089" display="none"/>
      <path d="M5.945,9.171 C5.944,9.124 5.941,9.076 5.932,9.031 C5.999,8.977 6.134,8.869 6.134,8.869 L6.141,8.644 L5.831,8.258 L5.605,8.25 C5.605,8.25 5.495,8.339 5.441,8.383 C5.383,8.353 5.323,8.328 5.26,8.308 C5.256,8.244 5.25,8.117 5.25,8.117 L5.096,7.952 L4.602,7.976 L4.437,8.131 C4.437,8.131 4.445,8.299 4.449,8.383 C4.4,8.408 4.354,8.438 4.31,8.471 C4.242,8.437 4.105,8.369 4.105,8.369 L3.885,8.419 L3.664,8.863 L3.656,8.893 L3.715,9.082 C3.715,9.082 3.873,9.161 3.953,9.2 C3.954,9.254 3.961,9.306 3.972,9.356 C3.909,9.406 3.783,9.507 3.783,9.507 L3.776,9.732 L4.083,10.119 C4.083,10.119 4.268,10.147 4.278,10.142 C4.288,10.137 4.309,10.127 4.309,10.127 C4.309,10.127 4.429,10.032 4.489,9.984 C4.537,10.008 4.588,10.028 4.641,10.044 C4.645,10.11 4.653,10.243 4.653,10.243 L4.807,10.408 L5.3,10.379 L5.465,10.225 C5.465,10.225 5.455,10.053 5.45,9.968 C5.491,9.946 5.53,9.922 5.568,9.895 C5.631,9.934 5.756,10.012 5.756,10.012 L5.976,9.962 L6.238,9.542 L6.187,9.322 C6.188,9.322 6.026,9.221 5.945,9.171 z M4.905,9.677 C4.631,9.668 4.415,9.438 4.424,9.163 C4.433,8.888 4.663,8.673 4.938,8.682 C5.212,8.691 5.428,8.92 5.419,9.195 C5.41,9.47 5.18,9.685 4.905,9.677 z" fill="#533089"/>
      <path d="M6.862,8.119 C6.862,8.119 6.688,8.011 6.601,7.957 C6.6,7.906 6.596,7.855 6.588,7.806 C6.66,7.748 6.804,7.632 6.804,7.632 L6.812,7.389 L6.479,6.974 L6.236,6.966 C6.236,6.966 6.118,7.061 6.059,7.109 C5.997,7.077 5.932,7.049 5.864,7.029 C5.861,6.96 5.854,6.823 5.854,6.823 L5.688,6.646 L5.157,6.672 L4.98,6.838 C4.98,6.838 4.988,7.018 4.992,7.108 C4.94,7.136 4.89,7.168 4.843,7.203 C4.77,7.167 4.622,7.094 4.622,7.094 L4.386,7.148 L4.148,7.624 L4.139,7.657 L4.202,7.861 C4.202,7.861 4.314,7.916 4.401,7.96 L4.5,7.868 L4.54,7.83 L4.595,7.827 L4.991,7.808 C5.061,7.583 5.271,7.423 5.518,7.431 C5.813,7.44 6.045,7.687 6.036,7.983 C6.033,8.062 6.012,8.137 5.979,8.203 L6.257,8.55 L6.292,8.593 L6.29,8.649 L6.286,8.792 C6.343,8.827 6.399,8.862 6.399,8.862 L6.635,8.808 L6.916,8.356 L6.862,8.119 z" fill="#533089"/>
      <path d="M1.76,7.589 C1.804,7.589 1.841,7.577 1.869,7.554 C1.898,7.53 1.92,7.497 1.934,7.453 C1.949,7.41 1.956,7.353 1.956,7.283 C1.956,7.223 1.952,7.176 1.943,7.141 C1.934,7.106 1.921,7.076 1.905,7.051 C1.889,7.027 1.869,7.008 1.845,6.996 C1.821,6.983 1.793,6.976 1.76,6.976 C1.717,6.976 1.68,6.988 1.652,7.011 C1.623,7.035 1.601,7.068 1.586,7.111 C1.572,7.155 1.565,7.212 1.565,7.283 C1.565,7.396 1.584,7.477 1.624,7.527 C1.657,7.568 1.702,7.589 1.76,7.589 z M1.679,7.08 C1.699,7.051 1.726,7.037 1.76,7.037 C1.794,7.037 1.823,7.053 1.846,7.086 C1.869,7.118 1.881,7.184 1.881,7.282 C1.881,7.381 1.869,7.446 1.846,7.479 C1.823,7.512 1.794,7.528 1.761,7.528 C1.727,7.528 1.698,7.512 1.675,7.479 C1.652,7.447 1.641,7.381 1.641,7.282 C1.64,7.184 1.653,7.117 1.679,7.08 z" fill="#533089" display="none"/>
      <path d="M2.196,7.056 C2.165,7.084 2.129,7.107 2.087,7.127 L2.087,7.198 C2.11,7.19 2.136,7.177 2.165,7.16 C2.194,7.143 2.217,7.126 2.235,7.109 L2.235,7.579 L2.309,7.579 L2.309,6.976 L2.261,6.976 C2.248,7.002 2.226,7.029 2.196,7.056 z" fill="#533089" display="none"/>
      <path d="M1.92,7.947 C1.904,7.922 1.884,7.904 1.859,7.891 C1.835,7.878 1.807,7.871 1.774,7.871 C1.731,7.871 1.695,7.883 1.666,7.907 C1.637,7.93 1.615,7.963 1.601,8.007 C1.586,8.05 1.579,8.107 1.579,8.178 C1.579,8.291 1.599,8.372 1.638,8.422 C1.671,8.464 1.716,8.484 1.774,8.484 C1.818,8.484 1.855,8.472 1.884,8.449 C1.912,8.425 1.934,8.392 1.949,8.349 C1.963,8.305 1.97,8.249 1.97,8.178 C1.97,8.119 1.966,8.071 1.957,8.036 C1.948,8.001 1.935,7.971 1.92,7.947 z M1.86,8.374 C1.837,8.407 1.808,8.424 1.774,8.424 C1.741,8.424 1.712,8.407 1.689,8.375 C1.666,8.342 1.655,8.276 1.655,8.178 C1.655,8.079 1.667,8.012 1.693,7.975 C1.713,7.947 1.74,7.932 1.774,7.932 C1.808,7.932 1.837,7.948 1.86,7.981 C1.883,8.013 1.895,8.079 1.895,8.178 C1.894,8.276 1.883,8.342 1.86,8.374 z" fill="#533089" display="none"/>
      <path d="M2.323,8.474 L2.323,7.871 L2.275,7.871 C2.262,7.897 2.24,7.924 2.21,7.952 C2.179,7.979 2.143,8.003 2.102,8.022 L2.102,8.093 C2.125,8.085 2.151,8.072 2.179,8.055 C2.208,8.038 2.231,8.021 2.249,8.005 L2.249,8.474 L2.323,8.474 z" fill="#533089" display="none"/>
      <path d="M2.727,8.474 L2.727,7.871 L2.679,7.871 C2.667,7.897 2.645,7.924 2.614,7.952 C2.583,7.979 2.547,8.003 2.506,8.022 L2.506,8.093 C2.529,8.085 2.555,8.072 2.584,8.055 C2.612,8.038 2.636,8.021 2.653,8.005 L2.653,8.474 L2.727,8.474 z" fill="#533089" display="none"/>
      <path d="M3.256,7.947 C3.24,7.922 3.221,7.904 3.196,7.891 C3.172,7.878 3.144,7.871 3.111,7.871 C3.068,7.871 3.031,7.883 3.003,7.907 C2.974,7.93 2.952,7.963 2.937,8.007 C2.923,8.05 2.916,8.107 2.916,8.178 C2.916,8.291 2.935,8.372 2.975,8.422 C3.008,8.464 3.053,8.484 3.111,8.484 C3.155,8.484 3.192,8.472 3.22,8.449 C3.249,8.425 3.271,8.392 3.285,8.349 C3.3,8.306 3.307,8.249 3.307,8.178 C3.307,8.119 3.303,8.071 3.294,8.036 C3.285,8.001 3.272,7.971 3.256,7.947 z M3.197,8.374 C3.174,8.407 3.145,8.424 3.111,8.424 C3.077,8.424 3.049,8.407 3.026,8.375 C3.003,8.342 2.991,8.276 2.991,8.178 C2.991,8.079 3.004,8.012 3.029,7.975 C3.05,7.947 3.077,7.932 3.11,7.932 C3.145,7.932 3.174,7.948 3.197,7.981 C3.22,8.013 3.231,8.079 3.231,8.178 C3.231,8.276 3.22,8.342 3.197,8.374 z" fill="#533089" display="none"/>
      <path d="M1.92,8.953 C1.904,8.929 1.884,8.91 1.859,8.897 C1.835,8.884 1.807,8.878 1.774,8.878 C1.731,8.878 1.695,8.89 1.666,8.913 C1.637,8.936 1.615,8.97 1.601,9.013 C1.586,9.056 1.579,9.113 1.579,9.184 C1.579,9.297 1.599,9.379 1.638,9.429 C1.671,9.47 1.716,9.491 1.774,9.491 C1.818,9.491 1.855,9.479 1.884,9.455 C1.912,9.432 1.934,9.398 1.949,9.355 C1.963,9.312 1.97,9.255 1.97,9.184 C1.97,9.125 1.966,9.078 1.957,9.043 C1.948,9.007 1.935,8.978 1.92,8.953 z M1.86,9.381 C1.837,9.414 1.808,9.43 1.774,9.43 C1.741,9.43 1.712,9.414 1.689,9.381 C1.666,9.349 1.655,9.283 1.655,9.184 C1.655,9.086 1.667,9.018 1.693,8.982 C1.713,8.953 1.74,8.939 1.774,8.939 C1.808,8.939 1.837,8.955 1.86,8.987 C1.883,9.02 1.895,9.086 1.895,9.184 C1.894,9.283 1.883,9.348 1.86,9.381 z" fill="#533089" display="none"/>
      <path d="M2.386,8.953 C2.37,8.929 2.35,8.91 2.326,8.897 C2.301,8.884 2.273,8.878 2.241,8.878 C2.197,8.878 2.161,8.89 2.132,8.913 C2.103,8.936 2.082,8.97 2.067,9.013 C2.052,9.056 2.045,9.113 2.045,9.184 C2.045,9.297 2.065,9.379 2.104,9.428 C2.137,9.47 2.183,9.491 2.241,9.491 C2.285,9.491 2.321,9.479 2.35,9.455 C2.378,9.432 2.4,9.398 2.415,9.355 C2.429,9.312 2.436,9.255 2.436,9.184 C2.436,9.125 2.432,9.077 2.423,9.042 C2.414,9.007 2.402,8.978 2.386,8.953 z M2.326,9.381 C2.303,9.414 2.275,9.43 2.241,9.43 C2.207,9.43 2.179,9.414 2.156,9.381 C2.132,9.349 2.121,9.283 2.121,9.184 C2.121,9.086 2.134,9.018 2.159,8.982 C2.179,8.953 2.206,8.939 2.24,8.939 C2.275,8.939 2.303,8.955 2.326,8.987 C2.349,9.02 2.361,9.086 2.361,9.184 C2.361,9.283 2.349,9.348 2.326,9.381 z" fill="#533089" display="none"/>
      <path d="M2.852,8.953 C2.836,8.929 2.816,8.91 2.792,8.897 C2.768,8.884 2.739,8.878 2.707,8.878 C2.664,8.878 2.627,8.89 2.599,8.913 C2.57,8.936 2.548,8.97 2.533,9.013 C2.519,9.056 2.511,9.113 2.511,9.184 C2.511,9.297 2.531,9.379 2.571,9.428 C2.604,9.47 2.649,9.491 2.707,9.491 C2.751,9.491 2.787,9.479 2.816,9.455 C2.845,9.432 2.866,9.398 2.881,9.355 C2.895,9.312 2.903,9.255 2.903,9.184 C2.903,9.125 2.898,9.077 2.889,9.042 C2.881,9.007 2.868,8.978 2.852,8.953 z M2.793,9.381 C2.77,9.414 2.741,9.43 2.707,9.43 C2.673,9.43 2.645,9.414 2.622,9.381 C2.599,9.349 2.587,9.283 2.587,9.184 C2.587,9.086 2.6,9.018 2.625,8.982 C2.646,8.953 2.673,8.939 2.706,8.939 C2.741,8.939 2.77,8.955 2.793,8.987 C2.816,9.02 2.828,9.086 2.828,9.184 C2.827,9.283 2.816,9.348 2.793,9.381 z" fill="#533089" display="none"/>
      <path d="M3.256,9.481 L3.256,8.878 L3.208,8.878 C3.195,8.904 3.174,8.93 3.143,8.958 C3.112,8.986 3.076,9.009 3.035,9.029 L3.035,9.1 C3.058,9.091 3.083,9.079 3.112,9.062 C3.141,9.045 3.164,9.028 3.182,9.011 L3.182,9.481 L3.256,9.481 z" fill="#533089" display="none"/>
      <path d="M3.654,9.935 C3.623,9.963 3.587,9.986 3.546,10.006 L3.546,10.077 C3.569,10.068 3.594,10.056 3.623,10.039 C3.652,10.022 3.675,10.005 3.693,9.988 L3.693,10.458 L3.767,10.458 L3.767,9.855 L3.719,9.855 C3.706,9.881 3.684,9.908 3.654,9.935 z" fill="#533089" display="none"/>
      <path d="M1.92,9.96 C1.904,9.935 1.884,9.917 1.859,9.904 C1.835,9.891 1.807,9.884 1.774,9.884 C1.731,9.884 1.695,9.896 1.666,9.919 C1.637,9.943 1.615,9.976 1.601,10.019 C1.586,10.063 1.579,10.12 1.579,10.191 C1.579,10.304 1.599,10.385 1.638,10.435 C1.671,10.476 1.716,10.497 1.774,10.497 C1.818,10.497 1.855,10.485 1.884,10.462 C1.912,10.438 1.934,10.405 1.949,10.361 C1.963,10.318 1.97,10.261 1.97,10.191 C1.97,10.131 1.966,10.084 1.957,10.049 C1.948,10.014 1.935,9.984 1.92,9.96 z M1.86,10.388 C1.837,10.42 1.808,10.437 1.774,10.437 C1.741,10.437 1.712,10.42 1.689,10.388 C1.666,10.355 1.655,10.29 1.655,10.191 C1.655,10.092 1.667,10.025 1.693,9.988 C1.713,9.96 1.74,9.945 1.774,9.945 C1.808,9.945 1.837,9.961 1.86,9.994 C1.883,10.026 1.895,10.092 1.895,10.191 C1.894,10.289 1.883,10.355 1.86,10.388 z" fill="#533089" display="none"/>
      <path d="M2.21,9.964 C2.179,9.992 2.143,10.015 2.102,10.035 L2.102,10.106 C2.125,10.098 2.151,10.085 2.179,10.068 C2.208,10.051 2.231,10.034 2.249,10.017 L2.249,10.487 L2.323,10.487 L2.323,9.884 L2.275,9.884 C2.262,9.91 2.24,9.937 2.21,9.964 z" fill="#533089" display="none"/>
      <path d="M2.614,9.964 C2.583,9.992 2.547,10.015 2.506,10.035 L2.506,10.106 C2.529,10.098 2.555,10.085 2.584,10.068 C2.612,10.051 2.636,10.034 2.653,10.017 L2.653,10.487 L2.727,10.487 L2.727,9.884 L2.679,9.884 C2.667,9.91 2.645,9.937 2.614,9.964 z" fill="#533089" display="none"/>
      <path d="M3.256,9.96 C3.24,9.935 3.221,9.917 3.196,9.904 C3.172,9.891 3.144,9.884 3.111,9.884 C3.068,9.884 3.031,9.896 3.003,9.919 C2.974,9.943 2.952,9.976 2.937,10.019 C2.923,10.063 2.916,10.12 2.916,10.191 C2.916,10.304 2.935,10.385 2.975,10.435 C3.008,10.476 3.053,10.497 3.111,10.497 C3.155,10.497 3.192,10.485 3.22,10.462 C3.249,10.438 3.271,10.405 3.285,10.361 C3.3,10.318 3.307,10.261 3.307,10.191 C3.307,10.131 3.303,10.084 3.294,10.049 C3.285,10.014 3.272,9.984 3.256,9.96 z M3.197,10.388 C3.174,10.42 3.145,10.437 3.111,10.437 C3.077,10.437 3.049,10.42 3.026,10.388 C3.003,10.355 2.991,10.29 2.991,10.191 C2.991,10.092 3.004,10.025 3.029,9.988 C3.05,9.96 3.077,9.945 3.11,9.945 C3.145,9.945 3.174,9.961 3.197,9.994 C3.22,10.026 3.231,10.092 3.231,10.191 C3.231,10.289 3.22,10.355 3.197,10.388 z" fill="#533089" display="none"/>
    </g>
    <path d="M3.086,9.081 C3.086,9.081 3.077,8.977 3.072,8.925 C3.097,8.911 3.12,8.896 3.142,8.879 C3.181,8.902 3.259,8.946 3.259,8.946 L3.391,8.912 L3.541,8.652 L3.507,8.52 C3.507,8.52 3.407,8.462 3.357,8.433 C3.355,8.404 3.352,8.376 3.346,8.348 C3.386,8.314 3.465,8.247 3.465,8.247 L3.465,8.11 L3.27,7.882 L3.133,7.882 C3.133,7.882 3.068,7.937 3.036,7.965 C3,7.948 2.963,7.934 2.924,7.924 C2.921,7.885 2.915,7.808 2.915,7.808 L2.818,7.711 L2.519,7.736 L2.423,7.832 C2.423,7.832 2.431,7.934 2.435,7.985 C2.406,8.001 2.378,8.02 2.352,8.041 C2.31,8.022 2.226,7.983 2.226,7.983 L2.094,8.018 L1.969,8.291 L1.964,8.309 L2.003,8.423 C2.003,8.423 2.101,8.468 2.15,8.49 C2.152,8.522 2.157,8.553 2.165,8.584 C2.128,8.615 2.053,8.679 2.053,8.679 L2.053,8.815 L2.247,9.044 C2.247,9.044 2.36,9.058 2.366,9.054 C2.372,9.051 2.384,9.044 2.384,9.044 C2.384,9.044 2.455,8.984 2.49,8.954 C2.52,8.968 2.551,8.979 2.584,8.988 C2.587,9.028 2.595,9.108 2.595,9.108 L2.691,9.205 L2.99,9.178 L3.086,9.081 z M2.737,8.76 C2.57,8.76 2.435,8.625 2.435,8.458 C2.435,8.292 2.57,8.157 2.737,8.157 C2.903,8.157 3.038,8.292 3.038,8.458 C3.038,8.625 2.903,8.76 2.737,8.76 z" fill="#533089"/>
    <path d="M2.147,7.64 C2.147,7.64 2.142,7.581 2.139,7.551 C2.153,7.543 2.166,7.534 2.179,7.524 C2.201,7.537 2.246,7.563 2.246,7.563 L2.322,7.543 L2.408,7.394 L2.388,7.318 C2.388,7.318 2.331,7.285 2.302,7.268 C2.301,7.252 2.299,7.235 2.296,7.219 C2.319,7.2 2.364,7.161 2.364,7.161 L2.364,7.082 L2.252,6.952 L2.174,6.952 C2.174,6.952 2.136,6.983 2.118,6.999 C2.098,6.99 2.076,6.982 2.054,6.976 C2.052,6.953 2.048,6.909 2.048,6.909 L1.993,6.854 L1.821,6.868 L1.766,6.923 C1.766,6.923 1.771,6.981 1.773,7.011 C1.756,7.02 1.74,7.031 1.725,7.043 C1.701,7.032 1.653,7.01 1.653,7.01 L1.577,7.03 L1.505,7.186 L1.502,7.197 L1.525,7.262 C1.525,7.262 1.581,7.288 1.609,7.301 C1.61,7.319 1.613,7.337 1.618,7.355 C1.596,7.373 1.554,7.409 1.554,7.409 L1.554,7.488 L1.665,7.619 C1.665,7.619 1.73,7.627 1.733,7.625 C1.737,7.623 1.744,7.619 1.744,7.619 C1.744,7.619 1.784,7.585 1.805,7.567 C1.822,7.575 1.84,7.582 1.858,7.587 C1.86,7.61 1.865,7.656 1.865,7.656 L1.92,7.711 L2.092,7.696 L2.147,7.64 z M1.946,7.456 C1.85,7.456 1.773,7.378 1.773,7.283 C1.773,7.187 1.85,7.109 1.946,7.109 C2.042,7.109 2.119,7.187 2.119,7.283 C2.119,7.378 2.042,7.456 1.946,7.456 z" fill="#533089"/>
    <path d="M3.33,10.252 C3.33,10.224 3.327,10.197 3.323,10.171 C3.361,10.139 3.439,10.077 3.439,10.077 L3.443,9.947 L3.264,9.724 L3.133,9.72 C3.133,9.72 3.07,9.771 3.038,9.796 C3.005,9.779 2.97,9.764 2.934,9.753 C2.932,9.716 2.928,9.642 2.928,9.642 L2.839,9.547 L2.553,9.561 L2.458,9.65 C2.458,9.65 2.463,9.747 2.465,9.796 C2.437,9.811 2.41,9.828 2.385,9.847 C2.345,9.827 2.266,9.788 2.266,9.788 L2.139,9.817 L2.011,10.073 L2.006,10.091 L2.04,10.201 C2.04,10.201 2.132,10.246 2.178,10.269 C2.179,10.3 2.183,10.33 2.189,10.359 C2.153,10.388 2.08,10.446 2.08,10.446 L2.076,10.576 L2.253,10.8 C2.253,10.8 2.36,10.816 2.366,10.813 C2.372,10.81 2.384,10.804 2.384,10.804 C2.384,10.804 2.453,10.749 2.488,10.722 C2.516,10.736 2.545,10.747 2.576,10.757 C2.578,10.795 2.583,10.872 2.583,10.872 L2.672,10.967 L2.957,10.95 L3.052,10.861 C3.052,10.861 3.047,10.762 3.044,10.713 C3.067,10.7 3.09,10.686 3.112,10.67 C3.148,10.693 3.221,10.738 3.221,10.738 L3.348,10.709 L3.499,10.466 L3.47,10.339 C3.47,10.339 3.377,10.281 3.33,10.252 z M2.729,10.544 C2.57,10.539 2.445,10.406 2.451,10.247 C2.456,10.088 2.589,9.964 2.747,9.969 C2.906,9.974 3.031,10.107 3.026,10.266 C3.021,10.425 2.888,10.549 2.729,10.544 z" fill="#533089"/>
    <path d="M5.305,5.567 C5.304,5.53 5.301,5.492 5.295,5.456 C5.348,5.414 5.454,5.329 5.454,5.329 L5.46,5.151 L5.215,4.846 L5.037,4.841 C5.037,4.841 4.95,4.91 4.907,4.945 C4.862,4.922 4.814,4.902 4.764,4.886 C4.762,4.836 4.757,4.735 4.757,4.735 L4.635,4.606 L4.245,4.625 L4.115,4.746 C4.115,4.746 4.122,4.879 4.125,4.945 C4.086,4.965 4.05,4.989 4.015,5.015 C3.961,4.988 3.853,4.934 3.853,4.934 L3.68,4.974 L3.506,5.324 L3.499,5.347 L3.545,5.497 C3.545,5.497 3.67,5.559 3.733,5.59 C3.735,5.632 3.74,5.673 3.749,5.713 C3.699,5.752 3.599,5.832 3.599,5.832 L3.594,6.009 L3.836,6.315 C3.836,6.315 3.982,6.337 3.99,6.333 C3.998,6.329 4.014,6.321 4.014,6.321 C4.014,6.321 4.109,6.246 4.156,6.208 C4.194,6.227 4.234,6.243 4.276,6.256 C4.279,6.308 4.285,6.413 4.285,6.413 L4.407,6.543 L4.796,6.52 L4.926,6.398 C4.926,6.398 4.918,6.263 4.914,6.195 C4.947,6.178 4.978,6.159 5.007,6.138 C5.057,6.169 5.156,6.231 5.156,6.231 L5.33,6.191 L5.536,5.86 L5.496,5.686 C5.496,5.686 5.369,5.607 5.305,5.567 z M4.485,5.966 C4.268,5.959 4.098,5.778 4.105,5.561 C4.112,5.344 4.294,5.174 4.51,5.181 C4.727,5.188 4.897,5.369 4.89,5.586 C4.883,5.803 4.702,5.973 4.485,5.966 z" fill="#533089"/>
    <path d="M6.86,6.067 C6.86,6.043 6.858,6.02 6.854,5.997 C6.887,5.97 6.955,5.916 6.955,5.916 L6.958,5.802 L6.803,5.609 L6.689,5.605 C6.689,5.605 6.634,5.649 6.607,5.671 C6.578,5.657 6.548,5.644 6.516,5.634 C6.514,5.602 6.511,5.538 6.511,5.538 L6.434,5.456 L6.186,5.468 L6.103,5.545 C6.103,5.545 6.107,5.629 6.109,5.671 C6.085,5.684 6.061,5.699 6.039,5.716 C6.005,5.699 5.936,5.665 5.936,5.665 L5.826,5.69 L5.715,5.912 L5.711,5.927 L5.74,6.023 C5.74,6.023 5.82,6.062 5.86,6.082 C5.861,6.109 5.864,6.135 5.87,6.16 C5.838,6.185 5.775,6.235 5.775,6.235 L5.771,6.348 L5.925,6.543 C5.925,6.543 6.018,6.557 6.023,6.555 C6.028,6.552 6.039,6.547 6.039,6.547 C6.039,6.547 6.099,6.499 6.129,6.475 C6.153,6.487 6.179,6.497 6.205,6.505 C6.207,6.539 6.211,6.605 6.211,6.605 L6.289,6.688 L6.536,6.673 L6.619,6.596 C6.619,6.596 6.614,6.51 6.611,6.467 C6.632,6.456 6.652,6.444 6.67,6.43 C6.702,6.45 6.765,6.489 6.765,6.489 L6.876,6.464 L7.007,6.253 L6.981,6.143 C6.982,6.143 6.9,6.092 6.86,6.067 z M6.338,6.321 C6.2,6.316 6.092,6.201 6.097,6.063 C6.101,5.925 6.216,5.817 6.354,5.822 C6.492,5.826 6.6,5.941 6.596,6.079 C6.591,6.217 6.476,6.325 6.338,6.321 z" fill="#533089"/>
  </g>
  <g id="head">
    <path d="M43.658,5.266 C43.832,5.309 44.01,5.2 44.054,5.021 C44.098,4.842 43.993,4.662 43.818,4.619 C43.643,4.576 43.466,4.685 43.421,4.864 C43.377,5.043 43.483,5.223 43.658,5.266 z M40.805,3.222 C41.19,3.222 41.504,3.528 41.504,3.906 C41.504,4.282 41.19,4.589 40.805,4.589 C40.42,4.589 40.106,4.283 40.106,3.906 C40.106,3.529 40.42,3.222 40.805,3.222 z M36.447,7.101 L36.515,6.87 L36.586,6.645 L36.672,6.436 L36.752,6.228 L36.833,6.024 L36.908,5.824 L36.97,5.615 L37.02,5.406 L37.009,5.31 L36.965,5.218 L36.92,5.122 L36.91,5.033 L36.947,4.85 L36.994,4.667 L37.042,4.482 L37.1,4.303 L37.16,4.121 L37.224,3.943 L37.292,3.76 L37.364,3.584 L37.443,3.418 L37.529,3.247 L37.611,3.08 L37.353,2.921 L37.443,2.764 L37.545,2.618 L37.646,2.47 L37.749,2.329 L37.845,2.212 L37.946,2.099 L38.048,1.996 L38.153,1.895 L38.26,1.799 L38.024,1.709 L38.146,1.627 L38.262,1.541 L38.387,1.467 L38.51,1.396 L38.64,1.326 L38.77,1.264 L38.904,1.203 L39.047,1.146 L39.187,1.09 L39.327,1.038 L39.497,0.983 L39.665,0.94 L39.835,0.894 L40.002,0.855 L40.178,0.819 L40.351,0.791 L40.526,0.769 L40.702,0.753 L40.875,0.742 L41.051,0.736 L41.225,0.731 L41.407,0.736 L41.582,0.742 L41.756,0.753 L41.932,0.769 L42.104,0.791 L42.286,0.819 L42.465,0.855 L42.646,0.889 L42.826,0.925 L43.006,0.978 L43.186,1.027 L43.368,1.085 L43.542,1.146 L43.712,1.214 L43.879,1.295 L44.05,1.37 L44.212,1.456 L44.371,1.552 L44.523,1.648 L44.668,1.755 L44.811,1.869 L44.94,1.981 L45.063,2.099 L45.181,2.223 L45.295,2.352 L45.401,2.494 L45.509,2.629 L45.606,2.775 L45.697,2.926 L45.785,3.079 L45.863,3.236 L45.931,3.395 L45.998,3.553 L46.055,3.716 L46.105,3.88 L46.147,4.049 L46.179,4.213 L46.229,4.561 L46.248,4.903 L46.239,5.246 L46.206,5.584 L46.151,5.924 L46.061,6.256 L45.947,6.578 L45.1,7.954 C43.662,9.433 43.724,10.913 43.724,10.913 L43.72,11.204 L43.709,12.102 L38.81,12.102 L38.789,12.009 L38.789,11.722 L38.779,11.434 L38.757,10.791 L38.724,10.465 L38.708,10.388 L38.677,10.326 L38.644,10.27 L38.6,10.224 L38.541,10.191 L38.475,10.168 L38.401,10.144 L38.322,10.132 L38.22,10.122 L38.124,10.117 L38.101,10.117 L38.005,10.127 L37.914,10.132 L37.82,10.144 L37.732,10.151 L37.63,10.163 L37.534,10.173 L37.775,10.179 L37.668,10.191 L37.56,10.196 L37.443,10.202 L37.374,10.196 L37.303,10.179 L37.23,10.151 L37.16,10.117 L37.094,10.073 L37.037,10.021 L36.989,9.964 L36.947,9.906 L36.92,9.783 L36.934,9.649 L36.96,9.516 L36.96,9.385 L36.941,9.327 L36.913,9.279 L36.886,9.226 L36.852,9.182 L36.817,9.136 L36.791,9.087 L36.769,9.035 L36.763,8.98 L36.769,8.917 L36.778,8.863 L36.796,8.803 L36.823,8.749 L36.864,8.697 L36.908,8.647 L36.96,8.609 L37.021,8.567 L36.955,8.534 L36.893,8.495 L36.83,8.45 L36.786,8.406 L36.746,8.354 L36.722,8.298 L36.71,8.246 L36.722,8.191 L36.785,7.991 L36.824,7.811 L36.848,7.643 L36.848,7.478 L36.752,7.439 L36.667,7.4 L36.592,7.359 L36.531,7.315 L36.484,7.266 L36.457,7.214 L36.441,7.159 L36.447,7.101 z M42.807,5.39 L42.923,5.585 C42.93,5.599 43.223,5.538 43.223,5.538 L43.331,5.619 C43.331,5.619 43.371,5.924 43.384,5.927 L43.602,5.981 C43.616,5.984 43.784,5.73 43.784,5.73 L43.917,5.71 C43.917,5.71 44.154,5.894 44.169,5.886 L44.361,5.767 C44.375,5.758 44.318,5.461 44.318,5.461 L44.397,5.35 C44.397,5.35 44.695,5.308 44.7,5.293 L44.754,5.071 C44.758,5.056 44.512,4.887 44.512,4.887 L44.492,4.753 C44.492,4.753 44.676,4.507 44.668,4.495 L44.553,4.299 C44.544,4.286 44.252,4.346 44.252,4.346 L44.144,4.266 C44.144,4.266 44.105,3.963 44.091,3.959 L43.874,3.906 C43.858,3.902 43.691,4.156 43.691,4.156 L43.558,4.176 C43.558,4.176 43.321,3.992 43.307,3.999 L43.115,4.119 C43.102,4.127 43.157,4.424 43.157,4.424 L43.078,4.536 C43.078,4.536 42.78,4.578 42.774,4.594 L42.72,4.815 C42.716,4.83 42.963,4.997 42.963,4.997 L42.982,5.134 C42.983,5.134 42.799,5.377 42.807,5.39 z M38.625,4.149 L38.625,4.149 C38.625,4.182 39.225,4.395 39.225,4.395 L39.335,4.656 C39.335,4.656 39.079,5.233 39.101,5.256 L39.441,5.588 C39.464,5.61 40.042,5.346 40.042,5.346 L40.309,5.454 C40.309,5.454 40.545,6.039 40.578,6.039 L41.056,6.039 C41.089,6.039 41.307,5.453 41.307,5.453 L41.576,5.345 C41.576,5.345 42.163,5.595 42.187,5.573 L42.522,5.242 C42.546,5.219 42.276,4.654 42.276,4.654 L42.387,4.392 C42.387,4.392 42.985,4.161 42.985,4.13 L42.985,3.661 C42.985,3.629 42.385,3.415 42.385,3.415 L42.275,3.155 C42.275,3.155 42.531,2.576 42.509,2.554 L42.17,2.223 C42.145,2.201 41.567,2.464 41.567,2.464 L41.301,2.356 C41.301,2.356 41.065,1.771 41.033,1.771 L40.553,1.771 C40.521,1.771 40.301,2.358 40.301,2.358 L40.036,2.465 C40.036,2.465 39.446,2.215 39.423,2.238 L39.083,2.569 C39.059,2.592 39.329,3.158 39.329,3.158 L39.22,3.418 C39.22,3.418 38.622,3.649 38.622,3.68 L38.622,4.149 L38.625,4.149 z" fill="#533089"/>
  </g>
</svg>
